<svg width="132" height="35" viewBox="0 0 132 35" fill="none" xmlns="http://www.w3.org/2000/svg">
<g filter="url(#filter0_bdd_16_35)">
<path d="M6.44578 23V6.2H13.9818C15.9178 6.2 17.4058 6.592 18.4458 7.376C19.4858 8.144 20.0058 9.2 20.0058 10.544C20.0058 11.456 19.7978 12.224 19.3818 12.848C18.9818 13.472 18.4378 13.952 17.7498 14.288C17.0618 14.624 16.3178 14.792 15.5178 14.792L15.9498 14.072C16.9098 14.072 17.7578 14.24 18.4938 14.576C19.2298 14.912 19.8138 15.408 20.2458 16.064C20.6778 16.704 20.8938 17.504 20.8938 18.464C20.8938 19.904 20.3498 21.024 19.2618 21.824C18.1898 22.608 16.5898 23 14.4618 23H6.44578ZM8.84578 21.056H14.3658C15.6938 21.056 16.7098 20.832 17.4138 20.384C18.1178 19.936 18.4698 19.232 18.4698 18.272C18.4698 17.296 18.1178 16.584 17.4138 16.136C16.7098 15.688 15.6938 15.464 14.3658 15.464H8.62978V13.52H13.7658C14.9818 13.52 15.9258 13.296 16.5978 12.848C17.2698 12.4 17.6058 11.728 17.6058 10.832C17.6058 9.936 17.2698 9.264 16.5978 8.816C15.9258 8.368 14.9818 8.144 13.7658 8.144H8.84578V21.056ZM26.3618 15.128H33.5378V17.024H26.3618V15.128ZM26.7458 21.056H34.6418V23H24.4178V9.368H34.3778V11.288H26.7458V21.056ZM47.6333 19.112C47.6333 19.944 47.4093 20.664 46.9613 21.272C46.5293 21.88 45.8973 22.352 45.0653 22.688C44.2493 23.024 43.2573 23.192 42.0893 23.192C41.0333 23.192 40.0013 23.048 38.9933 22.76C38.0013 22.456 37.2253 22.056 36.6653 21.56L37.5773 19.736C38.1213 20.168 38.8013 20.528 39.6173 20.816C40.4333 21.088 41.2893 21.224 42.1853 21.224C43.3373 21.224 44.1453 21.04 44.6093 20.672C45.0733 20.288 45.3053 19.84 45.3053 19.328C45.3053 18.88 45.1533 18.528 44.8493 18.272C44.5613 18 44.1693 17.792 43.6733 17.648C43.1773 17.488 42.6333 17.344 42.0413 17.216C41.4653 17.088 40.8813 16.944 40.2893 16.784C39.7133 16.624 39.1773 16.408 38.6813 16.136C38.2013 15.864 37.8093 15.496 37.5053 15.032C37.2013 14.552 37.0493 13.952 37.0493 13.232C37.0493 12.416 37.2733 11.704 37.7213 11.096C38.1693 10.488 38.8013 10.016 39.6173 9.68C40.4333 9.344 41.4093 9.176 42.5453 9.176C43.3773 9.176 44.2013 9.272 45.0173 9.464C45.8333 9.64 46.5373 9.936 47.1293 10.352L46.2893 12.224C45.7133 11.824 45.0893 11.544 44.4173 11.384C43.7613 11.224 43.1133 11.144 42.4733 11.144C41.3853 11.144 40.5933 11.336 40.0973 11.72C39.6173 12.088 39.3773 12.544 39.3773 13.088C39.3773 13.536 39.5293 13.896 39.8333 14.168C40.1373 14.424 40.5293 14.632 41.0093 14.792C41.5053 14.936 42.0493 15.072 42.6413 15.2C43.2333 15.328 43.8173 15.472 44.3933 15.632C44.9693 15.792 45.5053 16.008 46.0013 16.28C46.4973 16.552 46.8893 16.92 47.1773 17.384C47.4813 17.832 47.6333 18.408 47.6333 19.112ZM48.5033 23L54.7433 9.368H57.0473L63.3113 23H60.9593L55.5113 10.592H56.3033L50.7833 23H48.5033ZM51.3593 19.76L51.9833 17.912H59.4713L60.0953 19.76H51.3593ZM65.621 23V9.368H67.541L76.301 20.12H75.413V9.368H77.741V23H75.821L67.037 12.248H67.949V23H65.621ZM88.5222 23.192C87.1142 23.192 85.8502 22.888 84.7302 22.28C83.6102 21.672 82.7302 20.84 82.0902 19.784C81.4502 18.712 81.1302 17.512 81.1302 16.184C81.1302 14.824 81.4502 13.624 82.0902 12.584C82.7302 11.528 83.6102 10.696 84.7302 10.088C85.8502 9.48 87.1142 9.176 88.5222 9.176C89.6902 9.176 90.7222 9.352 91.6182 9.704C92.5142 10.056 93.2742 10.592 93.8982 11.312L92.4102 12.824C91.8982 12.264 91.3222 11.856 90.6822 11.6C90.0422 11.328 89.3462 11.192 88.5942 11.192C87.6182 11.192 86.7382 11.408 85.9542 11.84C85.1862 12.256 84.5782 12.84 84.1302 13.592C83.6982 14.344 83.4822 15.208 83.4822 16.184C83.4822 17.128 83.6982 17.984 84.1302 18.752C84.5782 19.504 85.1862 20.096 85.9542 20.528C86.7382 20.96 87.6182 21.176 88.5942 21.176C89.3462 21.176 90.0422 21.04 90.6822 20.768C91.3222 20.496 91.8982 20.08 92.4102 19.52L93.8982 21.032C93.2742 21.752 92.5062 22.296 91.5942 22.664C90.6982 23.016 89.6742 23.192 88.5222 23.192ZM87.5382 28.376C87.1222 28.376 86.7382 28.328 86.3862 28.232C86.0342 28.152 85.7062 28.024 85.4022 27.848L85.9062 26.672C86.1622 26.816 86.4182 26.92 86.6742 26.984C86.9462 27.048 87.2342 27.08 87.5382 27.08C88.0022 27.08 88.3382 26.992 88.5462 26.816C88.7702 26.656 88.8822 26.424 88.8822 26.12C88.8822 25.832 88.7702 25.6 88.5462 25.424C88.3382 25.264 87.9942 25.184 87.5142 25.184H86.8662L87.4662 22.832H88.7862L88.4262 24.2C89.1142 24.264 89.6342 24.48 89.9862 24.848C90.3382 25.216 90.5142 25.664 90.5142 26.192C90.5142 26.864 90.2422 27.392 89.6982 27.776C89.1542 28.176 88.4342 28.376 87.5382 28.376ZM102.82 23.192C101.412 23.192 100.148 22.888 99.0277 22.28C97.9077 21.672 97.0197 20.84 96.3637 19.784C95.7237 18.712 95.4037 17.504 95.4037 16.16C95.4037 14.832 95.7237 13.64 96.3637 12.584C97.0197 11.528 97.9077 10.696 99.0277 10.088C100.148 9.48 101.412 9.176 102.82 9.176C104.244 9.176 105.508 9.48 106.612 10.088C107.732 10.696 108.612 11.528 109.252 12.584C109.908 13.64 110.236 14.832 110.236 16.16C110.236 17.504 109.908 18.712 109.252 19.784C108.612 20.84 107.732 21.672 106.612 22.28C105.508 22.888 104.244 23.192 102.82 23.192ZM102.82 21.176C103.796 21.176 104.66 20.96 105.412 20.528C106.18 20.096 106.78 19.504 107.212 18.752C107.66 17.984 107.884 17.128 107.884 16.184C107.884 15.208 107.66 14.352 107.212 13.616C106.78 12.864 106.18 12.272 105.412 11.84C104.66 11.408 103.796 11.192 102.82 11.192C101.86 11.192 100.996 11.408 100.228 11.84C99.4597 12.256 98.8517 12.84 98.4037 13.592C97.9717 14.344 97.7557 15.208 97.7557 16.184C97.7557 17.128 97.9717 17.984 98.4037 18.752C98.8517 19.504 99.4597 20.096 100.228 20.528C100.996 20.96 101.86 21.176 102.82 21.176ZM113.621 23V9.368H115.541L124.301 20.12H123.413V9.368H125.741V23H123.821L115.037 12.248H115.949V23H113.621Z" fill="#2F2F2F"/>
</g>
<defs>
<filter id="filter0_bdd_16_35" x="-33.5542" y="-33.8" width="199.295" height="102.176" filterUnits="userSpaceOnUse" color-interpolation-filters="sRGB">
<feFlood flood-opacity="0" result="BackgroundImageFix"/>
<feGaussianBlur in="BackgroundImageFix" stdDeviation="20"/>
<feComposite in2="SourceAlpha" operator="in" result="effect1_backgroundBlur_16_35"/>
<feColorMatrix in="SourceAlpha" type="matrix" values="0 0 0 0 0 0 0 0 0 0 0 0 0 0 0 0 0 0 127 0" result="hardAlpha"/>
<feOffset dx="-2" dy="-2"/>
<feGaussianBlur stdDeviation="2"/>
<feComposite in2="hardAlpha" operator="out"/>
<feColorMatrix type="matrix" values="0 0 0 0 1 0 0 0 0 1 0 0 0 0 1 0 0 0 0.25 0"/>
<feBlend mode="normal" in2="effect1_backgroundBlur_16_35" result="effect2_dropShadow_16_35"/>
<feColorMatrix in="SourceAlpha" type="matrix" values="0 0 0 0 0 0 0 0 0 0 0 0 0 0 0 0 0 0 127 0" result="hardAlpha"/>
<feOffset dx="2" dy="2"/>
<feGaussianBlur stdDeviation="2"/>
<feComposite in2="hardAlpha" operator="out"/>
<feColorMatrix type="matrix" values="0 0 0 0 0 0 0 0 0 0 0 0 0 0 0 0 0 0 0.12 0"/>
<feBlend mode="normal" in2="effect2_dropShadow_16_35" result="effect3_dropShadow_16_35"/>
<feBlend mode="normal" in="SourceGraphic" in2="effect3_dropShadow_16_35" result="shape"/>
</filter>
</defs>
</svg>
