<svg width="16" height="24" viewBox="0 0 16 24" fill="none" xmlns="http://www.w3.org/2000/svg">
<rect width="16" height="24" fill="#3E3E3E"/>
<g id="&#226;&#134;&#146; MORE INFO (keyframe from)" filter="url(#filter0_b_0_1)">
<rect width="350" height="760" transform="translate(-17 -6)" fill="white" fill-opacity="0.05"/>
<g id="Close panel" clip-path="url(#clip0_0_1)">
<path id="Line 10" d="M9 2C9 1.44772 8.55228 1 8 1C7.44772 1 7 1.44772 7 2L9 2ZM7.29289 22.7071C7.68342 23.0976 8.31658 23.0976 8.7071 22.7071L15.0711 16.3431C15.4616 15.9526 15.4616 15.3195 15.0711 14.9289C14.6805 14.5384 14.0474 14.5384 13.6569 14.9289L8 20.5858L2.34314 14.9289C1.95262 14.5384 1.31946 14.5384 0.928931 14.9289C0.538407 15.3195 0.538407 15.9526 0.928931 16.3431L7.29289 22.7071ZM7 2L7 22L9 22L9 2L7 2Z" fill="#3E4A5B"/>
</g>
</g>
<defs>
<filter id="filter0_b_0_1" x="-57" y="-46" width="430" height="840" filterUnits="userSpaceOnUse" color-interpolation-filters="sRGB">
<feFlood flood-opacity="0" result="BackgroundImageFix"/>
<feGaussianBlur in="BackgroundImageFix" stdDeviation="20"/>
<feComposite in2="SourceAlpha" operator="in" result="effect1_backgroundBlur_0_1"/>
<feBlend mode="normal" in="SourceGraphic" in2="effect1_backgroundBlur_0_1" result="shape"/>
</filter>
<clipPath id="clip0_0_1">
<rect width="24" height="16" fill="white" transform="matrix(0 -1 1 0 0 24)"/>
</clipPath>
</defs>
</svg>
